<?xml version="1.0" encoding="UTF-8" standalone="no"?><!DOCTYPE svg PUBLIC "-//W3C//DTD SVG 1.1//EN" "http://www.w3.org/Graphics/SVG/1.1/DTD/svg11.dtd"><svg width="100%" height="100%" viewBox="0 0 18 18" version="1.1" xmlns="http://www.w3.org/2000/svg" xmlns:xlink="http://www.w3.org/1999/xlink" xml:space="preserve" style="fill-rule:evenodd;clip-rule:evenodd;stroke-linejoin:round;stroke-miterlimit:1.41421;"><path d="M9,0c4.967,0 9,4.033 9,9c0,4.967 -4.033,9 -9,9c-4.967,0 -9,-4.033 -9,-9c0,-4.967 4.033,-9 9,-9Zm0.004,11.604c-0.801,0 -1.486,-0.237 -2.055,-0.711c-0.569,-0.473 -0.853,-1.111 -0.853,-1.911c0,-0.796 0.284,-1.443 0.853,-1.941c0.569,-0.498 1.254,-0.747 2.055,-0.747c0.713,0 1.174,0.18 1.384,0.542l0,-0.381l1.457,0l-0.014,3.647l0,0.022c0,0.254 0.039,0.381 0.117,0.381c0.068,0 0.166,-0.088 0.293,-0.264c0.278,-0.395 0.417,-1.001 0.417,-1.816c0,-0.815 -0.308,-1.531 -0.926,-2.146c-0.618,-0.615 -1.527,-0.923 -2.728,-0.923c-1.197,0 -2.101,0.308 -2.714,0.923c-0.613,0.615 -0.919,1.475 -0.919,2.578c0,1.104 0.355,2.011 1.066,2.721c0.71,0.711 1.566,1.066 2.567,1.066c0.688,0 1.279,-0.154 1.772,-0.462l1.04,1.092c-0.942,0.551 -1.88,0.827 -2.812,0.827c-1.402,0 -2.603,-0.499 -3.604,-1.497c-1.001,-0.999 -1.501,-2.201 -1.501,-3.608c0,-1.401 0.5,-2.601 1.501,-3.6c1.001,-0.998 2.202,-1.497 3.604,-1.497c1.411,0 2.613,0.5 3.607,1.501c0.993,1.001 1.49,2.017 1.49,3.047c0,1.03 -0.266,1.865 -0.798,2.505c-0.439,0.522 -0.925,0.784 -1.458,0.784c-0.117,0 -0.236,-0.015 -0.358,-0.044c-0.679,-0.142 -1.045,-0.371 -1.099,-0.689c-0.259,0.401 -0.72,0.601 -1.384,0.601Zm1.399,-2.219l0,-0.791c-0.049,-0.22 -0.171,-0.428 -0.367,-0.623c-0.283,-0.283 -0.622,-0.425 -1.018,-0.425c-0.395,0 -0.732,0.142 -1.01,0.425c-0.279,0.283 -0.418,0.623 -0.418,1.018c0,0.4 0.139,0.74 0.418,1.018c0.278,0.278 0.615,0.418 1.01,0.418c0.401,0 0.74,-0.14 1.018,-0.418c0.196,-0.195 0.318,-0.403 0.367,-0.622Z" style="fill:#fff;"/></svg>