<?xml version="1.0" encoding="UTF-8" standalone="no"?><!DOCTYPE svg PUBLIC "-//W3C//DTD SVG 1.1//EN" "http://www.w3.org/Graphics/SVG/1.1/DTD/svg11.dtd"><svg width="100%" height="100%" viewBox="0 0 18 18" version="1.1" xmlns="http://www.w3.org/2000/svg" xmlns:xlink="http://www.w3.org/1999/xlink" xml:space="preserve" style="fill-rule:evenodd;clip-rule:evenodd;stroke-linejoin:round;stroke-miterlimit:1.41421;"><path d="M9,0c4.967,0 9,4.033 9,9c0,4.967 -4.033,9 -9,9c-4.967,0 -9,-4.033 -9,-9c0,-4.967 4.033,-9 9,-9Zm2.314,6.902l0.748,-3.003l-1.546,0l-0.747,3.003l-0.615,0l0.747,-3.003l-1.546,0l-0.747,3.003l-3.003,0l-0.388,1.516l3.011,0l-0.162,0.644l-3.003,0l-0.388,1.516l3.011,0l-0.755,3.011l1.553,0l0.747,-3.011l0.615,0l-0.747,3.011l1.546,0l0.747,-3.011l3.003,0l0.388,-1.516l-3.011,0l0.162,-0.644l3.003,0l0.388,-1.516l-3.011,0Zm-1.926,1.516l-0.161,0.644l-0.615,0l0.161,-0.644l0.615,0Z" style="fill:#fff;"/></svg>