<?xml version="1.0" encoding="UTF-8" standalone="no"?><!DOCTYPE svg PUBLIC "-//W3C//DTD SVG 1.1//EN" "http://www.w3.org/Graphics/SVG/1.1/DTD/svg11.dtd"><svg width="100%" height="100%" viewBox="0 0 18 18" version="1.1" xmlns="http://www.w3.org/2000/svg" xmlns:xlink="http://www.w3.org/1999/xlink" xml:space="preserve" style="fill-rule:evenodd;clip-rule:evenodd;stroke-linejoin:round;stroke-miterlimit:1.41421;"><path d="M9,0c4.967,0 9,4.033 9,9c0,4.967 -4.033,9 -9,9c-4.967,0 -9,-4.033 -9,-9c0,-4.967 4.033,-9 9,-9Zm3.647,13.409l2.242,-8.818l-2.315,0l-1.068,5.542l-0.049,0l-1.662,-5.542l-1.59,0l-1.646,5.517l-0.049,0l-1.084,-5.517l-2.315,0l2.242,8.818l1.98,0l1.638,-5.085l0.049,0l1.639,5.085l1.988,0Z" style="fill:#fff;"/></svg>