<?xml version="1.0" encoding="UTF-8" standalone="no"?><!DOCTYPE svg PUBLIC "-//W3C//DTD SVG 1.1//EN" "http://www.w3.org/Graphics/SVG/1.1/DTD/svg11.dtd"><svg width="100%" height="100%" viewBox="0 0 18 18" version="1.1" xmlns="http://www.w3.org/2000/svg" xmlns:xlink="http://www.w3.org/1999/xlink" xml:space="preserve" style="fill-rule:evenodd;clip-rule:evenodd;stroke-linejoin:round;stroke-miterlimit:1.41421;"><g><g id="black"><path d="M14.863,4.195c0.485,0.591 0.883,1.256 1.173,1.977l-14.072,0c0.29,-0.72 0.688,-1.386 1.173,-1.977l11.726,0Z" style="fill:#1f1f1f;"/><path d="M16.518,8.011c0.042,0.324 0.064,0.654 0.064,0.989c0,0.335 -0.022,0.665 -0.064,0.989l-15.036,0c-0.042,-0.324 -0.064,-0.654 -0.064,-0.989c0,-0.335 0.022,-0.665 0.064,-0.989l15.036,0Z" style="fill:#1f1f1f;"/><path d="M16.036,11.828c-0.29,0.72 -0.688,1.386 -1.173,1.977l-11.726,0c-0.485,-0.591 -0.883,-1.256 -1.173,-1.977l14.072,0Z" style="fill:#1f1f1f;"/></g></g></svg>