<?xml version="1.0" encoding="UTF-8" standalone="no"?><!DOCTYPE svg PUBLIC "-//W3C//DTD SVG 1.1//EN" "http://www.w3.org/Graphics/SVG/1.1/DTD/svg11.dtd"><svg width="100%" height="100%" viewBox="0 0 18 18" version="1.1" xmlns="http://www.w3.org/2000/svg" xmlns:xlink="http://www.w3.org/1999/xlink" xml:space="preserve" style="fill-rule:evenodd;clip-rule:evenodd;stroke-linejoin:round;stroke-miterlimit:1.41421;"><g><g id="black"><path d="M13.441,5.361c0.367,0.447 0.668,0.951 0.888,1.497l-10.658,0c0.22,-0.546 0.521,-1.05 0.888,-1.497l8.882,0Z" style="fill:#1f1f1f;"/><path d="M14.694,8.251c0.032,0.245 0.048,0.495 0.048,0.749c0,0.254 -0.016,0.504 -0.048,0.749l-11.388,0c-0.032,-0.245 -0.048,-0.495 -0.048,-0.749c0,-0.254 0.016,-0.504 0.048,-0.749l11.388,0Z" style="fill:#1f1f1f;"/><path d="M14.329,11.142c-0.22,0.546 -0.521,1.05 -0.888,1.497l-8.882,0c-0.367,-0.447 -0.668,-0.951 -0.888,-1.497l10.658,0Z" style="fill:#1f1f1f;"/></g></g></svg>