<?xml version="1.0" encoding="UTF-8" standalone="no"?><!DOCTYPE svg PUBLIC "-//W3C//DTD SVG 1.1//EN" "http://www.w3.org/Graphics/SVG/1.1/DTD/svg11.dtd"><svg width="100%" height="100%" viewBox="0 0 24 24" version="1.1" xmlns="http://www.w3.org/2000/svg" xmlns:xlink="http://www.w3.org/1999/xlink" xml:space="preserve" style="fill-rule:evenodd;clip-rule:evenodd;stroke-linejoin:round;stroke-miterlimit:1.41421;"><g><g id="email"><g><circle cx="12" cy="12" r="12" style="fill:#fff;"/><path d="M19.807,11.714c-0.056,1.364 -0.456,2.54 -1.201,3.528c-0.744,0.988 -1.858,1.483 -3.34,1.483c-0.488,0 -0.91,-0.138 -1.267,-0.413c-0.356,-0.276 -0.61,-0.66 -0.76,-1.154c-0.275,0.512 -0.618,0.897 -1.027,1.154c-0.41,0.256 -0.89,0.384 -1.441,0.384c-0.882,0 -1.559,-0.372 -2.031,-1.116c-0.473,-0.745 -0.646,-1.73 -0.521,-2.956c0.156,-1.589 0.605,-2.862 1.346,-3.819c0.742,-0.957 1.641,-1.436 2.698,-1.436c0.726,0 1.309,0.082 1.75,0.244c0.441,0.163 0.924,0.413 1.45,0.751l-0.028,0.037l0.047,0l-0.479,5.377c-0.044,0.594 0,1.001 0.132,1.22c0.131,0.219 0.309,0.328 0.534,0.328c0.72,0 1.297,-0.341 1.732,-1.022c0.434,-0.682 0.677,-1.546 0.727,-2.59c0.1,-2.208 -0.327,-3.932 -1.281,-5.17c-0.954,-1.239 -2.429,-1.858 -4.424,-1.858c-1.896,0 -3.41,0.666 -4.542,1.998c-1.132,1.333 -1.745,3.119 -1.839,5.358c-0.106,2.221 0.35,3.973 1.37,5.255c1.02,1.282 2.487,1.924 4.401,1.924c0.532,0 1.08,-0.063 1.647,-0.188c0.566,-0.125 1.052,-0.282 1.459,-0.469l0.356,1.379c-0.419,0.263 -0.952,0.468 -1.6,0.615c-0.647,0.147 -1.28,0.22 -1.9,0.22c-2.477,0 -4.387,-0.779 -5.728,-2.336c-1.342,-1.558 -1.96,-3.691 -1.854,-6.4c0.113,-2.671 0.912,-4.809 2.398,-6.413c1.486,-1.605 3.442,-2.407 5.869,-2.407c2.421,0 4.276,0.758 5.565,2.275c1.288,1.517 1.883,3.589 1.782,6.217Zm-9.477,0.91c-0.062,0.794 -0.004,1.397 0.174,1.806c0.178,0.41 0.467,0.615 0.868,0.615c0.35,0 0.668,-0.081 0.952,-0.244c0.285,-0.163 0.54,-0.463 0.765,-0.901c0,-0.025 0,-0.045 0,-0.061c0,-0.015 0.003,-0.036 0.009,-0.061l0.413,-4.654c-0.144,-0.044 -0.288,-0.078 -0.431,-0.103c-0.144,-0.025 -0.294,-0.038 -0.451,-0.038c-0.694,0 -1.223,0.302 -1.586,0.906c-0.362,0.603 -0.6,1.515 -0.713,2.735Z" style="fill:#2091ad;fill-rule:nonzero;"/></g></g></g></svg>