<?xml version="1.0" encoding="UTF-8" standalone="no"?><!DOCTYPE svg PUBLIC "-//W3C//DTD SVG 1.1//EN" "http://www.w3.org/Graphics/SVG/1.1/DTD/svg11.dtd"><svg width="100%" height="100%" viewBox="0 0 24 24" version="1.1" xmlns="http://www.w3.org/2000/svg" xmlns:xlink="http://www.w3.org/1999/xlink" xml:space="preserve" style="fill-rule:evenodd;clip-rule:evenodd;stroke-linejoin:round;stroke-miterlimit:1.41421;"><g><g id="linkedin"><g><circle cx="11.982" cy="11.97" r="11.982" style="fill:#fff;"/><g><path d="M7.832,19.538l-2.736,0l0,-10.138l2.736,0l0,10.138Zm0,-12.565l-2.736,0l0,-2.052l2.736,0l0,2.052Z" style="fill:#2091ad;fill-rule:nonzero;"/><path d="M12.582,9.4l0.122,1.452c0.337,-0.518 0.752,-0.921 1.246,-1.208c0.493,-0.288 1.046,-0.431 1.658,-0.431c1.025,0 1.824,0.329 2.399,0.988c0.575,0.659 0.862,1.701 0.862,3.125l0,6.212l-2.745,0l0,-6.203c0,-0.724 -0.127,-1.238 -0.38,-1.541c-0.253,-0.303 -0.632,-0.454 -1.138,-0.454c-0.406,0 -0.764,0.076 -1.073,0.229c-0.309,0.153 -0.564,0.364 -0.764,0.633l0,7.336l-2.736,0l0,-10.138l2.549,0Z" style="fill:#2091ad;fill-rule:nonzero;"/></g></g></g></g></svg>