<?xml version="1.0" encoding="UTF-8" standalone="no"?><!DOCTYPE svg PUBLIC "-//W3C//DTD SVG 1.1//EN" "http://www.w3.org/Graphics/SVG/1.1/DTD/svg11.dtd"><svg width="100%" height="100%" viewBox="0 0 24 24" version="1.1" xmlns="http://www.w3.org/2000/svg" xmlns:xlink="http://www.w3.org/1999/xlink" xml:space="preserve" style="fill-rule:evenodd;clip-rule:evenodd;stroke-linejoin:round;stroke-miterlimit:1.41421;"><g><g id="phone"><g><circle cx="11.982" cy="11.97" r="11.982" style="fill:#fff;"/><path d="M12.395,14.95l-1.799,0l-0.666,3.841l-1.724,0l0.675,-3.841l-2.127,0l0,-1.584l2.399,0l0.477,-2.717l-2.173,0l0,-1.602l2.455,0l0.684,-3.898l1.714,0l-0.684,3.898l1.799,0l0.694,-3.898l1.714,0l-0.684,3.898l2.061,0l0,1.602l-2.342,0l-0.478,2.717l2.108,0l0,1.584l-2.379,0l-0.675,3.841l-1.724,0l0.675,-3.841Zm-1.518,-1.584l1.789,0l0.478,-2.717l-1.799,0l-0.468,2.717Z" style="fill:#2091ad;fill-rule:nonzero;"/></g></g></g></svg>