<?xml version="1.0" encoding="UTF-8" standalone="no"?><!DOCTYPE svg PUBLIC "-//W3C//DTD SVG 1.1//EN" "http://www.w3.org/Graphics/SVG/1.1/DTD/svg11.dtd"><svg width="100%" height="100%" viewBox="0 0 24 24" version="1.1" xmlns="http://www.w3.org/2000/svg" xmlns:xlink="http://www.w3.org/1999/xlink" xml:space="preserve" style="fill-rule:evenodd;clip-rule:evenodd;stroke-linecap:round;stroke-linejoin:round;stroke-miterlimit:1.5;"><g><g id="web"><g><circle cx="12" cy="11.988" r="12" style="fill:#f3f3f3;"/><circle cx="12" cy="11.988" r="9.895" style="fill:none;"/><clipPath id="_clip1"><circle cx="12" cy="11.988" r="9.895"/></clipPath><g clip-path="url(#_clip1)"><g><path d="M2.105,11.988l19.79,0" style="fill:none;stroke:#2091ad;stroke-width:0.88px;"/><ellipse cx="12" cy="-1.486" rx="15.264" ry="9.895" style="fill:none;stroke:#2091ad;stroke-width:0.88px;"/><ellipse cx="12" cy="25.462" rx="15.264" ry="9.895" style="fill:none;stroke:#2091ad;stroke-width:0.88px;"/><ellipse cx="12" cy="11.988" rx="5.401" ry="9.895" style="fill:none;stroke:#2091ad;stroke-width:0.88px;"/></g><rect x="5.735" y="9.768" width="12.531" height="4.44" style="fill:#f3f3f3;"/><g><g><path d="M8.914,12.552l0.013,0l0.419,-2.143l0.653,0l-0.738,3.158l-0.588,0l-0.581,-2.08l-0.013,0l-0.579,2.08l-0.588,0l-0.738,-3.158l0.653,0l0.421,2.141l0.013,0l0.568,-2.141l0.512,0l0.573,2.143Z" style="fill:#2091ad;fill-rule:nonzero;"/><path d="M12.828,12.552l0.013,0l0.418,-2.143l0.653,0l-0.737,3.158l-0.588,0l-0.582,-2.08l-0.013,0l-0.579,2.08l-0.588,0l-0.737,-3.158l0.653,0l0.421,2.141l0.013,0l0.568,-2.141l0.512,0l0.573,2.143Z" style="fill:#2091ad;fill-rule:nonzero;"/><path d="M16.741,12.552l0.013,0l0.419,-2.143l0.653,0l-0.738,3.158l-0.588,0l-0.581,-2.08l-0.013,0l-0.579,2.08l-0.588,0l-0.738,-3.158l0.653,0l0.421,2.141l0.013,0l0.569,-2.141l0.511,0l0.573,2.143Z" style="fill:#2091ad;fill-rule:nonzero;"/></g></g></g><circle cx="12" cy="11.988" r="9.895" style="fill:none;stroke:#2091ad;stroke-width:0.88px;"/></g></g></g></svg>